<svg width="15" height="9" viewBox="0 0 15 9" fill="none" xmlns="http://www.w3.org/2000/svg">
<path fill-rule="evenodd" clip-rule="evenodd" d="M0.346873 0.346299C0.569369 0.12408 0.870974 -0.000739098 1.18544 -0.000739098C1.4999 -0.000739098 1.8015 0.12408 2.024 0.346299L7.5142 5.8365L13.0044 0.346299C13.2293 0.136691 13.5269 0.0225773 13.8343 0.0280008C14.1417 0.0334253 14.435 0.157964 14.6524 0.375378C14.8699 0.592791 14.9944 0.886106 14.9998 1.19353C15.0052 1.50095 14.8911 1.79847 14.6815 2.02342L8.35276 8.35218C8.13026 8.5744 7.82866 8.69922 7.5142 8.69922C7.19973 8.69922 6.89813 8.5744 6.67564 8.35218L0.346873 2.02342C0.124654 1.80092 -0.000163078 1.49932 -0.000163078 1.18486C-0.000163078 0.870399 0.124654 0.568795 0.346873 0.346299Z" fill="white"/>
</svg>
