<svg width="27" height="23" viewBox="0 0 27 23" fill="none" xmlns="http://www.w3.org/2000/svg">
<path fill-rule="evenodd" clip-rule="evenodd" d="M0.526521 22.2294C0.189405 21.8919 4.95911e-05 21.4343 4.95911e-05 20.9573C4.95911e-05 20.4802 0.189405 20.0227 0.526521 19.6851L8.85538 11.3563L0.526521 3.02741C0.208536 2.68616 0.0354214 2.2348 0.0436497 1.76843C0.051878 1.30206 0.240808 0.857087 0.570633 0.527262C0.900458 0.197437 1.34543 0.00850903 1.8118 0.000280463C2.27817 -0.0079481 2.72953 0.165165 3.07078 0.48315L12.6718 10.0841C13.0089 10.4217 13.1982 10.8792 13.1982 11.3563C13.1982 11.8333 13.0089 12.2909 12.6718 12.6284L3.07078 22.2294C2.73325 22.5665 2.2757 22.7559 1.79865 22.7559C1.3216 22.7559 0.864057 22.5665 0.526521 22.2294Z" fill="white"/>
<path fill-rule="evenodd" clip-rule="evenodd" d="M14.1798 22.2294C13.8427 21.8919 13.6534 21.4343 13.6534 20.9573C13.6534 20.4802 13.8427 20.0227 14.1798 19.6851L22.5087 11.3563L14.1798 3.02741C13.8619 2.68616 13.6887 2.2348 13.697 1.76843C13.7052 1.30206 13.8941 0.857087 14.224 0.527262C14.5538 0.197437 14.9987 0.00850903 15.4651 0.000280463C15.9315 -0.0079481 16.3828 0.165165 16.7241 0.48315L26.3251 10.0841C26.6622 10.4217 26.8516 10.8792 26.8516 11.3563C26.8516 11.8333 26.6622 12.2909 26.3251 12.6284L16.7241 22.2294C16.3866 22.5665 15.929 22.7559 15.452 22.7559C14.9749 22.7559 14.5174 22.5665 14.1798 22.2294Z" fill="white"/>
</svg>
