<svg width="20" height="20" viewBox="0 0 20 20" fill="none" xmlns="http://www.w3.org/2000/svg">
<g clip-path="url(#clip0_1_137)">
<path d="M1.42852 6.42803C1.23908 6.42803 1.0574 6.35278 0.923443 6.21882C0.789488 6.08487 0.714233 5.90319 0.714233 5.71375V1.42803C0.714233 1.23859 0.789488 1.05691 0.923443 0.922955C1.0574 0.789 1.23908 0.713745 1.42852 0.713745H18.5714C18.7608 0.713745 18.9425 0.789 19.0765 0.922955C19.2104 1.05691 19.2857 1.23859 19.2857 1.42803V5.71375C19.2857 5.90319 19.2104 6.08487 19.0765 6.21882C18.9425 6.35278 18.7608 6.42803 18.5714 6.42803" stroke="#767A89" stroke-width="1.42857" stroke-linecap="round" stroke-linejoin="round"/>
<path d="M14.2857 4.28516H5.71422C5.31974 4.28516 4.99994 4.60495 4.99994 4.99944V14.9994C4.99994 15.3939 5.31974 15.7137 5.71422 15.7137H14.2857C14.6801 15.7137 14.9999 15.3939 14.9999 14.9994V4.99944C14.9999 4.60495 14.6801 4.28516 14.2857 4.28516Z" stroke="#767A89" stroke-width="1.42857" stroke-linecap="round" stroke-linejoin="round"/>
<path d="M9.99997 12.1423C11.1834 12.1423 12.1428 11.183 12.1428 9.99949C12.1428 8.81602 11.1834 7.85663 9.99997 7.85663C8.81651 7.85663 7.85712 8.81602 7.85712 9.99949C7.85712 11.183 8.81651 12.1423 9.99997 12.1423Z" stroke="#767A89" stroke-width="1.42857" stroke-linecap="round" stroke-linejoin="round"/>
<path d="M4.99994 19.2852H14.9999" stroke="#767A89" stroke-width="1.42857" stroke-linecap="round" stroke-linejoin="round"/>
</g>
<defs>
<clipPath id="clip0_1_137">
<rect width="20" height="20" fill="white"/>
</clipPath>
</defs>
</svg>
