<svg width="31" height="28" viewBox="0 0 31 28" fill="none" xmlns="http://www.w3.org/2000/svg">
<path d="M7.56563 17.5V22.75H26.303V10.5H22.5555V8.75H26.9757C27.3935 8.75 27.5453 8.79025 27.6971 8.86725C27.8487 8.94153 27.9727 9.0568 28.0531 9.198C28.1336 9.33975 28.1767 9.4815 28.1767 9.87175V23.3783C28.1767 23.7685 28.1336 23.9103 28.0512 24.052C27.9717 24.1936 27.8482 24.3095 27.6971 24.3845C27.5453 24.4598 27.3935 24.5 26.9757 24.5H6.89296C6.47512 24.5 6.32334 24.4597 6.17157 24.3827C6.01997 24.3085 5.89589 24.1932 5.81556 24.052C5.73686 23.9103 5.69189 23.7685 5.69189 23.38V17.5H7.56563Z" fill="#767A89"/>
<path d="M22.5555 5.25H3.81813V17.5H22.5555V5.25ZM24.4292 4.62175V18.1283C24.4292 18.5185 24.3861 18.6603 24.3037 18.802C24.2242 18.9436 24.1007 19.0595 23.9496 19.1345C23.7978 19.2098 23.646 19.25 23.2282 19.25H3.14546C2.72762 19.25 2.57585 19.2097 2.42407 19.1327C2.27247 19.0585 2.1484 18.9432 2.06806 18.802C1.98937 18.6603 1.9444 18.5185 1.9444 18.13V4.62175C1.9444 4.2315 1.98749 4.08975 2.06994 3.948C2.14947 3.80641 2.27289 3.69053 2.42407 3.6155C2.57585 3.542 2.72762 3.5 3.14359 3.5H23.2263C23.6441 3.5 23.7959 3.54025 23.9477 3.61725C24.0993 3.69153 24.2234 3.8068 24.3037 3.948C24.3843 4.08975 24.4274 4.2315 24.4274 4.62175H24.4292Z" fill="#767A89"/>
<path d="M13.1868 15.75C11.9445 15.75 10.753 15.2891 9.87451 14.4686C8.99603 13.6481 8.5025 12.5353 8.5025 11.375C8.5025 10.2147 8.99603 9.10188 9.87451 8.28141C10.753 7.46094 11.9445 7 13.1868 7C14.4292 7 15.6207 7.46094 16.4992 8.28141C17.3777 9.10188 17.8712 10.2147 17.8712 11.375C17.8712 12.5353 17.3777 13.6481 16.4992 14.4686C15.6207 15.2891 14.4292 15.75 13.1868 15.75ZM13.1868 14C13.9323 14 14.6472 13.7234 15.1742 13.2312C15.7013 12.7389 15.9975 12.0712 15.9975 11.375C15.9975 10.6788 15.7013 10.0111 15.1742 9.51884C14.6472 9.02656 13.9323 8.75 13.1868 8.75C12.4414 8.75 11.7265 9.02656 11.1994 9.51884C10.6724 10.0111 10.3762 10.6788 10.3762 11.375C10.3762 12.0712 10.6724 12.7389 11.1994 13.2312C11.7265 13.7234 12.4414 14 13.1868 14Z" fill="#767A89"/>
</svg>
