<svg width="20" height="20" viewBox="0 0 20 20" fill="none" xmlns="http://www.w3.org/2000/svg">
<g clip-path="url(#clip0_1_124)">
<path d="M0.666667 19.3333H0V20H0.666667V19.3333ZM8.66667 7.33333L9.2 6.93333C9.13599 6.84807 9.05246 6.7794 8.95642 6.73308C8.86039 6.68677 8.75464 6.66417 8.64807 6.66717C8.54149 6.67018 8.43719 6.6987 8.34391 6.75035C8.25063 6.802 8.17111 6.87526 8.112 6.964L8.66667 7.33333ZM12.6667 12.6667L12.1333 13.0667C12.1963 13.1505 12.2781 13.2183 12.3722 13.2646C12.4662 13.3109 12.5699 13.3343 12.6747 13.333C12.7795 13.3317 12.8826 13.3057 12.9755 13.2571C13.0684 13.2085 13.1485 13.1387 13.2093 13.0533L12.6667 12.6667ZM0 0V19.3333H1.33333V0H0ZM0.666667 20H20V18.6667H0.666667V20ZM3.888 15.7027L9.22133 7.70267L8.112 6.964L2.77867 14.964L3.888 15.7027ZM8.13333 7.73333L12.1333 13.0667L13.2 12.2667L9.2 6.93333L8.13333 7.73333ZM13.2093 13.0533L19.876 3.72L18.7907 2.94667L12.124 12.28L13.2093 13.0533Z" fill="#767A89"/>
</g>
<defs>
<clipPath id="clip0_1_124">
<rect width="20" height="20" fill="white"/>
</clipPath>
</defs>
</svg>
