<svg width="28" height="28" viewBox="0 0 28 28" fill="none" xmlns="http://www.w3.org/2000/svg">
<path d="M7 17.5V22.75H24.5V10.5H21V8.75H25.1283C25.5185 8.75 25.6603 8.79025 25.802 8.86725C25.9436 8.94153 26.0595 9.0568 26.1345 9.198C26.2097 9.33975 26.25 9.4815 26.25 9.87175V23.3783C26.25 23.7685 26.2097 23.9103 26.1327 24.052C26.0585 24.1936 25.9432 24.3095 25.802 24.3845C25.6603 24.4598 25.5185 24.5 25.1283 24.5H6.37175C5.9815 24.5 5.83975 24.4597 5.698 24.3827C5.55641 24.3085 5.44053 24.1932 5.3655 24.052C5.292 23.9103 5.25 23.7685 5.25 23.38V17.5H7Z" fill="#767A89"/>
<path d="M21 5.25H3.5V17.5H21V5.25ZM22.75 4.62175V18.1283C22.75 18.5185 22.7097 18.6603 22.6327 18.802C22.5585 18.9436 22.4432 19.0595 22.302 19.1345C22.1603 19.2098 22.0185 19.25 21.6283 19.25H2.87175C2.4815 19.25 2.33975 19.2097 2.198 19.1327C2.05641 19.0585 1.94053 18.9432 1.8655 18.802C1.792 18.6603 1.75 18.5185 1.75 18.13V4.62175C1.75 4.2315 1.79025 4.08975 1.86725 3.948C1.94153 3.80641 2.0568 3.69053 2.198 3.6155C2.33975 3.542 2.4815 3.5 2.87 3.5H21.6265C22.0168 3.5 22.1585 3.54025 22.3003 3.61725C22.4418 3.69153 22.5577 3.8068 22.6327 3.948C22.708 4.08975 22.7482 4.2315 22.7482 4.62175H22.75Z" fill="#767A89"/>
<path d="M12.25 15.75C11.0897 15.75 9.97688 15.2891 9.15641 14.4686C8.33594 13.6481 7.875 12.5353 7.875 11.375C7.875 10.2147 8.33594 9.10188 9.15641 8.28141C9.97688 7.46094 11.0897 7 12.25 7C13.4103 7 14.5231 7.46094 15.3436 8.28141C16.1641 9.10188 16.625 10.2147 16.625 11.375C16.625 12.5353 16.1641 13.6481 15.3436 14.4686C14.5231 15.2891 13.4103 15.75 12.25 15.75ZM12.25 14C12.9462 14 13.6139 13.7234 14.1062 13.2312C14.5984 12.7389 14.875 12.0712 14.875 11.375C14.875 10.6788 14.5984 10.0111 14.1062 9.51884C13.6139 9.02656 12.9462 8.75 12.25 8.75C11.5538 8.75 10.8861 9.02656 10.3938 9.51884C9.90156 10.0111 9.625 10.6788 9.625 11.375C9.625 12.0712 9.90156 12.7389 10.3938 13.2312C10.8861 13.7234 11.5538 14 12.25 14Z" fill="#767A89"/>
</svg>
