<svg width="24" height="24" viewBox="0 0 24 24" fill="none" xmlns="http://www.w3.org/2000/svg">
<path d="M9 2.458V4.582C7.28092 5.28005 5.8578 6.55371 4.97406 8.18512C4.09032 9.81652 3.80088 11.7043 4.15525 13.5255C4.50963 15.3468 5.48579 16.9883 6.91676 18.1693C8.34774 19.3503 10.1446 19.9975 12 20C13.594 20.0002 15.1516 19.5243 16.4734 18.6335C17.7952 17.7427 18.8209 16.4775 19.419 15H21.542C20.268 19.057 16.478 22 12 22C6.477 22 2 17.523 2 12C2 7.522 4.943 3.732 9 2.458ZM12 2C17.523 2 22 6.477 22 12C22 12.338 21.983 12.671 21.95 13H11V2.05C11.329 2.017 11.662 2 12 2ZM13 4.062V11H19.938C19.7154 9.23761 18.9129 7.59934 17.6568 6.34324C16.4007 5.08713 14.7624 4.28459 13 4.062Z" fill="#877DFF"/>
</svg>
