<svg xmlns="http://www.w3.org/2000/svg" width="24" height="24" viewBox="0 0 24 24" fill="none">
<path fill-rule="evenodd" clip-rule="evenodd" d="M18.319 14.433C19.566 12.8253 20.1537 10.803 19.9625 8.77745C19.7714 6.75187 18.8157 4.87521 17.29 3.52924C15.7642 2.18327 13.783 1.4691 11.7494 1.53203C9.71584 1.59496 7.7826 2.43025 6.34301 3.86798C4.90217 5.30671 4.06414 7.2407 3.99971 9.27585C3.93528 11.311 4.64929 13.2941 5.99624 14.8211C7.34319 16.3481 9.22171 17.304 11.249 17.4941C13.2763 17.6841 15.2997 17.094 16.907 15.844L16.95 15.889L21.192 20.132C21.2849 20.2249 21.3952 20.2986 21.5166 20.3489C21.638 20.3992 21.7681 20.425 21.8995 20.425C22.0309 20.425 22.161 20.3992 22.2824 20.3489C22.4038 20.2986 22.5141 20.2249 22.607 20.132C22.6999 20.0391 22.7736 19.9288 22.8239 19.8074C22.8742 19.686 22.9001 19.5559 22.9001 19.4245C22.9001 19.2931 22.8742 19.163 22.8239 19.0416C22.7736 18.9202 22.6999 18.8099 22.607 18.717L18.364 14.475C18.3494 14.4606 18.3344 14.4466 18.319 14.433ZM16.243 5.28298C16.8076 5.83846 17.2566 6.50023 17.5642 7.23012C17.8718 7.96001 18.0318 8.74357 18.035 9.5356C18.0382 10.3276 17.8846 11.1125 17.583 11.8448C17.2814 12.5772 16.8378 13.2426 16.2777 13.8027C15.7176 14.3627 15.0522 14.8064 14.3199 15.108C13.5875 15.4096 12.8027 15.5632 12.0106 15.56C11.2186 15.5568 10.435 15.3967 9.70514 15.0892C8.97526 14.7816 8.31349 14.3326 7.75801 13.768C6.64793 12.6397 6.02866 11.1184 6.03511 9.5356C6.04156 7.95278 6.67319 6.43663 7.79242 5.31739C8.91165 4.19816 10.4278 3.56653 12.0106 3.56008C13.5935 3.55364 15.1147 4.1729 16.243 5.28298Z" fill="#767A89"/>
</svg>