<svg width="61" height="61" viewBox="0 0 61 61" fill="none" xmlns="http://www.w3.org/2000/svg">
<circle cx="30.3772" cy="30.0735" r="30.0725" fill="#1F254A"/>
<path d="M40.8177 24.4667C40.8338 24.6944 40.8338 24.9221 40.8338 25.1498C40.8338 32.095 35.5986 40.0975 26.0301 40.0975C23.0823 40.0975 20.3439 39.2354 18.0403 37.7391C18.4592 37.7879 18.8619 37.8041 19.2968 37.8041C21.7291 37.8041 23.9682 36.9746 25.7563 35.5596C23.4689 35.5107 21.552 33.9981 20.8915 31.9161C21.2137 31.9649 21.5359 31.9974 21.8742 31.9974C22.3413 31.9974 22.8085 31.9324 23.2434 31.8186C20.8593 31.3306 19.0712 29.2161 19.0712 26.6625V26.5974C19.7639 26.9878 20.5694 27.2318 21.4231 27.2643C20.0216 26.3209 19.1035 24.7106 19.1035 22.8889C19.1035 21.913 19.3612 21.0184 19.8122 20.2377C22.3735 23.4257 26.2234 25.5076 30.5404 25.7353C30.4599 25.345 30.4116 24.9384 30.4116 24.5317C30.4116 21.6365 32.7312 19.2781 35.6146 19.2781C37.1127 19.2781 38.4658 19.9124 39.4162 20.9371C40.5921 20.7094 41.7197 20.2702 42.7184 19.6684C42.3318 20.8884 41.5103 21.9131 40.431 22.5636C41.4781 22.4498 42.4929 22.157 43.4272 21.7504C42.7185 22.7913 41.8325 23.7184 40.8177 24.4667Z" fill="white"/>
</svg>
