<svg width="61" height="64" viewBox="0 0 61 64" fill="none" xmlns="http://www.w3.org/2000/svg">
<circle cx="30.68" cy="30.0735" r="30.0725" fill="#1F254A"/>
<path d="M40.495 19.4934H20.8662H20.8665C19.5345 19.4934 18.2573 20.0223 17.3158 20.9642C16.3738 21.9058 15.845 23.183 15.845 24.5149V35.0141V35.0138C15.845 36.3457 16.3739 37.6229 17.3158 38.5645C18.2573 39.5064 19.5345 40.0353 20.8665 40.0353H40.4954H40.495C41.827 40.0353 43.1042 39.5064 44.0458 38.5645C44.9877 37.6229 45.5166 36.3457 45.5166 35.0138V24.5146V24.5149C45.5166 23.183 44.9877 21.9058 44.0458 20.9642C43.1042 20.0223 41.827 19.4934 40.495 19.4934ZM36.4919 29.9649L27.5904 34.5297C27.5197 34.566 27.4354 34.5635 27.3675 34.5224C27.2994 34.4816 27.2577 34.4081 27.257 34.3288V25.1991C27.2577 25.1198 27.2994 25.0462 27.3675 25.0055C27.4354 24.9644 27.5197 24.9619 27.5904 24.9982L36.4919 29.563C36.568 29.6022 36.6161 29.6805 36.6161 29.7662C36.6161 29.8518 36.568 29.9302 36.4919 29.9693V29.9649Z" fill="white"/>
</svg>
